<svg width="20" height="20" fill="none" xmlns="http://www.w3.org/2000/svg"><path d="M17.725 7.65c-.242-.383-.5-.742-.767-1.075a.834.834 0 00-1.241-.075l-2.5 2.5c.183.55.216 1.183.05 1.842a3.351 3.351 0 01-2.417 2.416 3.269 3.269 0 01-1.842-.05l-2.05 2.05c-.416.417-.283 1.15.275 1.367a7.683 7.683 0 002.767.517c1.483 0 2.925-.434 4.242-1.242 1.341-.833 2.55-2.058 3.525-3.617.791-1.258.75-3.375-.042-4.633zm-6.042.667l-3.366 3.367a2.418 2.418 0 01-.7-1.683A2.388 2.388 0 0110 7.617c.65 0 1.25.275 1.683.7z" fill="#6E7E90"/><path d="M15.208 4.793l-2.825 2.825A3.322 3.322 0 0010 6.634a3.363 3.363 0 00-3.367 3.367c0 .933.375 1.775.984 2.383L4.8 15.21h-.008c-.925-.75-1.775-1.708-2.5-2.841-.834-1.309-.834-3.434 0-4.742.966-1.517 2.15-2.708 3.466-3.525C7.075 3.302 8.517 2.86 10 2.86c1.858 0 3.658.684 5.208 1.934zm-2.825 5.208A2.388 2.388 0 0110 12.384c-.05 0-.092 0-.142-.016l2.509-2.509c.016.05.016.092.016.142z" fill="#6E7E90"/><path d="M18.142 1.86a.644.644 0 00-.909 0L1.858 17.242a.644.644 0 000 .908.632.632 0 00.9-.008L18.142 2.759a.62.62 0 000-.9z" fill="#6E7E90"/></svg>