<svg width="20" height="20" fill="none" xmlns="http://www.w3.org/2000/svg"><path d="M17.708 7.626C15.783 4.601 12.967 2.859 10 2.859c-1.483 0-2.925.434-4.242 1.242-1.316.817-2.5 2.008-3.466 3.525-.834 1.308-.834 3.433 0 4.742C4.217 15.4 7.033 17.134 10 17.134c1.483 0 2.925-.433 4.242-1.241 1.316-.817 2.5-2.009 3.466-3.525.834-1.3.834-3.434 0-4.742zM10 13.368A3.363 3.363 0 016.633 10c0-1.858 1.5-3.367 3.367-3.367A3.363 3.363 0 0113.367 10c0 1.858-1.5 3.367-3.367 3.367z" fill="#141731"/><path d="M10 7.617a2.38 2.38 0 000 4.758 2.386 2.386 0 002.383-2.374A2.394 2.394 0 0010 7.617z" fill="#141731"/></svg>