<svg width="38" height="38" fill="none" xmlns="http://www.w3.org/2000/svg"><g clip-path="url(#clip0_1_66)"><path d="M1.222 18.998h0c-.001 9.818 7.959 17.778 17.773 17.778L1.222 18.998zm0 0C1.22 9.181 9.18 1.222 18.998 1.222c9.82 0 17.78 7.96 17.78 17.778 0 9.816-7.96 17.775-17.783 17.776L1.222 18.998z" stroke="#6E7E90" stroke-width="2.444"/><path d="M26.475 14.346c-.245-2.545-2.441-3.398-5.217-3.64V7.173H19.11v3.437c-.564 0-1.142.01-1.715.023v-3.46h-2.148l-.002 3.528c-.465.01-.923.018-1.368.018v-.01l-2.963-.002v2.296s1.587-.03 1.56-.002c.87 0 1.153.505 1.236.94l-.002 9.673c-.038.273-.2.71-.807.711.027.024-1.562 0-1.562 0l-.427 2.566h2.798c.52 0 1.032.009 1.533.012l.002 3.57h2.147v-3.532c.588.012 1.158.017 1.716.017l-.002 3.515h2.149V26.91c3.612-.206 6.143-1.117 6.456-4.51.254-2.73-1.03-3.951-3.081-4.444 1.248-.632 2.027-1.75 1.845-3.611zm-3.007 7.633c0 2.668-4.568 2.365-6.026 2.365v-4.732c1.458.004 6.026-.414 6.026 2.367zm-1-6.674c0 2.427-3.813 2.143-5.026 2.145v-4.29c1.215 0 5.027-.386 5.026 2.145z" fill="#6E7E90"/></g><defs><clipPath id="clip0_1_66"><path fill="#fff" d="M0 0h38v38H0z"/></clipPath></defs></svg>