<svg width="70" height="42" fill="none" xmlns="http://www.w3.org/2000/svg"><g clip-path="url(#clip0_1_55)" fill="#6E7E90"><path fill-rule="evenodd" clip-rule="evenodd" d="M48.642.01C60.44.01 70.005 9.409 70.005 21c0 11.592-9.565 20.989-21.363 20.989a21.51 21.51 0 01-13.623-4.82c-3.701 3.023-8.471 4.82-13.662 4.82C9.559 41.989-.006 32.592-.006 21S9.559.01 21.357.01c5.19 0 9.96 1.797 13.662 4.821A21.508 21.508 0 0148.642.011zm0 1.543c10.931 0 19.794 8.707 19.794 19.448 0 10.74-8.863 19.446-19.794 19.446a19.81 19.81 0 01-12.47-4.365c2.6-2.466 4.586-5.555 5.65-9.045h-1.644c-1.03 3.103-2.84 5.842-5.194 8.039a19.403 19.403 0 01-5.161-8.03h-1.645a20.918 20.918 0 005.592 9.022c-3.4 2.707-7.696 4.379-12.413 4.379C10.425 40.447 1.563 31.74 1.563 21c0-10.74 8.862-19.447 19.794-19.447 4.717 0 9.012 1.673 12.413 4.378a20.925 20.925 0 00-5.592 9.023h1.645a19.417 19.417 0 015.161-8.03c2.353 2.198 4.164 4.936 5.194 8.04h1.645c-1.065-3.491-3.05-6.58-5.65-9.046a19.812 19.812 0 0112.469-4.365z"/><path d="M55.254 18.36l-1.366 7.196h2.011l.62-3.294c.563-2.045 1.428-2.035 1.933-2.028h.078l.541-1.874c-1.005 0-1.599.354-1.908.709l-.18-.71h-1.729zm-25.86-1.829h-1.991l-1.378 6.823c-.384 1.956 1.123 2.233 1.582 2.233.46 0 1.047-.076 1.481-.352l.128-1.454c-1.15.175-1.2-.326-1.098-.878l.561-2.91h1.022l.357-1.555h-1.072l.408-1.907z"/><path fill-rule="evenodd" clip-rule="evenodd" d="M33.301 18.337c3.498 0 2.962 2.86 2.732 4.014h-4.34c-.223 1.584.974 1.582 1.769 1.58h.069c.792 0 1.94-.1 2.247-.175l-.306 1.48c-.486.25-1.712.35-2.554.325-3.447 0-3.395-3.185-3.32-3.637l.009-.049c.096-.591.576-3.538 3.694-3.538zm.996 2.71H31.82c.23-.904.791-1.305 1.583-1.305.792 0 1.022.602.894 1.305z"/><path d="M25.973 18.588l-.46 1.455c-.561-.151-1.506-.151-1.966-.1-.74.2-.434.878-.026 1.053.41.176 1.048.527 1.43.778.383.226.852.704.69 1.756-.317 2.06-2.496 2.038-3.115 2.032h-.077c-.69 0-1.43 0-2.349-.251l.281-1.48c.824.27 1.875.213 2.387.186.107-.006.19-.01.243-.01.668 0 .76-.831.256-1.08-.142-.069-.286-.15-.446-.24a10.848 10.848 0 00-1.163-.587c-.475-.202-.97-.753-.69-2.082.362-1.71 2.69-1.707 3.025-1.706h.014l.127-.003a4.628 4.628 0 011.839.279zm-11.719-1.706l-1.66 8.68h-2.068l1.175-6.121-2.783 6.12h-1.89l-.537-6.27-1.225 6.27H3.275l1.71-8.68h3.192l.383 5.269 2.426-5.268h3.268z"/><path fill-rule="evenodd" clip-rule="evenodd" d="M14.483 20.118l.307-1.555c1.08-.208 1.738-.226 2.28-.241l.324-.01c3.344 0 3.013 2.358 2.809 3.336l-.792 3.913h-1.864l-.255-.401c-.358.25-.638.376-1.66.426-1.022.05-2.323-.702-2.093-2.183.489-2.622 3.265-2.54 4.31-2.51.154.005.27.009.336.002.208-.975-.397-.986-1.025-.998l-.2-.005c-.522-.019-1.395.092-2 .168-.193.025-.36.046-.477.058zm3.243 2.211l.128.022-.153.778c-.129.653-1.072 1.069-1.711.827-.664-.25-.486-1.003.153-1.43.566-.378 1.213-.263 1.583-.197zm27.805-3.79c.664 0 1.02.05 1.532.35l1.302-1.279c-.51-.552-1.098-1.095-2.732-1.154-1.378-.05-3.74.938-4.494 3.637-1.02 3.663 1.226 5.469 3.294 5.469 1.098 0 1.762-.15 2.426-.451l-.588-1.756c-2.042.677-3.497-.352-3.166-2.434.281-1.759 1.762-2.382 2.426-2.382zm18.229.392c.094.096.183.188.283.26l.535-2.76h2.094l-1.736 9.131h-2.144l-.257-.576c-.408.275-1.071.551-1.736.576-1.43 0-2.741-1.984-2.093-4.164.919-3.087 2.5-3.072 3.598-3.061h.181c.7 0 1.007.317 1.275.594zm-.56 1.438c.22.29.332 1.104.128 1.756-.358.878-.817 1.455-1.558 1.455-.69 0-1.302-.778-1.021-1.806.43-1.573 1.838-2.207 2.45-1.405zm-15.013-.251l.306-1.555c1.08-.208 1.738-.226 2.28-.241l.324-.01c3.345 0 3.013 2.358 2.81 3.336l-.793 3.913H51.25l-.256-.4c-.357.25-.638.375-1.66.426-1.021.05-2.323-.702-2.093-2.183.49-2.622 3.265-2.54 4.31-2.51.154.005.27.008.336.002.209-.975-.397-.987-1.025-.999-.067 0-.134-.002-.2-.005-.522-.018-1.396.092-2 .169-.193.024-.359.045-.476.057zm3.242 2.211l.128.022-.154.778c-.128.653-1.07 1.069-1.71.827-.664-.25-.486-1.003.153-1.43.566-.378 1.213-.263 1.583-.197zM36.09 25.561l1.354-7.123h1.71l.18.702c.305-.352.892-.703 1.888-.703l-.51 1.882c-.486 0-1.43-.15-2.017 1.982l-.613 3.26h-1.991z"/></g><defs><clipPath id="clip0_1_55"><path fill="#fff" d="M0 0h70v42H0z"/></clipPath></defs></svg>