<svg width="0" height="0">
  <symbol xmlns="http://www.w3.org/2000/svg" viewBox="0 0 12 8" id="arrow-header">
    <path d="M1 1.5l5 5 5-5" stroke-width="2"></path>
  </symbol>

  <symbol xmlns="http://www.w3.org/2000/svg" viewBox="0 0 30 30" id="arrow">
    <g clip-path="url(#clip0_27_2375)">
      <path d="M5.963 4.139v3.878h12.862L2.768 24.074l2.742 2.741 16.057-16.057V23.62h3.878V4.14H5.963z"></path>
    </g>
    <defs>
      <clipPath id="clip0_27_2375">
        <path fill="#fff" d="M0 0h30v30H0z"></path>
      </clipPath>
    </defs>
  </symbol>

  <symbol xmlns="http://www.w3.org/2000/svg" viewBox="0 0 50 50" id="call">
    <path d="M45.77 38.185a5.3 5.3 0 01-.52 2.27 8.594 8.594 0 01-1.417 2.126c-1.02 1.125-2.146 1.937-3.416 2.458a10.48 10.48 0 01-4.063.792c-2.125 0-4.396-.5-6.792-1.521-2.396-1.02-4.791-2.396-7.166-4.125a59.897 59.897 0 01-6.834-5.833 59.2 59.2 0 01-5.812-6.813c-1.709-2.375-3.083-4.75-4.083-7.104-1-2.375-1.5-4.646-1.5-6.813 0-1.416.25-2.77.75-4.02.5-1.271 1.291-2.438 2.395-3.48 1.334-1.312 2.792-1.958 4.334-1.958.583 0 1.166.125 1.687.375.542.25 1.021.625 1.396 1.167l4.833 6.812c.375.521.646 1 .834 1.459.187.437.291.875.291 1.27 0 .5-.146 1-.437 1.48-.271.479-.667.979-1.167 1.479L17.5 19.852c-.23.229-.334.5-.334.833 0 .167.021.312.063.48.063.166.125.29.167.416.375.687 1.02 1.583 1.937 2.666a71.312 71.312 0 003.021 3.292c1.125 1.104 2.208 2.125 3.313 3.063 1.083.916 1.979 1.541 2.687 1.916.104.042.23.104.375.167.167.062.333.083.52.083.355 0 .626-.125.855-.354l1.583-1.562c.521-.521 1.021-.917 1.5-1.167.48-.292.959-.438 1.48-.438.395 0 .812.084 1.27.271.459.188.938.459 1.459.813l6.895 4.896c.542.375.917.812 1.146 1.333a4.26 4.26 0 01.334 1.625z" stroke-width="3" stroke-miterlimit="10"></path>
    <path d="M38.541 18.749c0-1.25-.979-3.167-2.437-4.73-1.333-1.437-3.104-2.562-4.854-2.562m14.583 7.29c0-8.062-6.52-14.583-14.583-14.583" stroke-width="3" stroke-linecap="round" stroke-linejoin="round"></path>
  </symbol>

  <symbol xmlns="http://www.w3.org/2000/svg" viewBox="0 0 50 50" id="mail">
    <path d="M4.167 17.71c0-7.292 4.166-10.417 10.416-10.417h20.834c6.25 0 10.416 3.125 10.416 10.417v14.583c0 7.292-4.166 10.417-10.416 10.417H14.583" stroke-width="3" stroke-miterlimit="10" stroke-linecap="round" stroke-linejoin="round"></path>
    <path d="M35.417 18.75l-6.521 5.208c-2.146 1.709-5.667 1.709-7.813 0l-6.5-5.208M4.167 34.375h12.5m-12.5-8.332h6.25" stroke-width="3" stroke-miterlimit="10" stroke-linecap="round" stroke-linejoin="round"></path>
  </symbol>

  <symbol xmlns="http://www.w3.org/2000/svg" viewBox="0 0 40 40" id="arrow-right">
    <rect width="40" height="40" rx="20" fill="#FE7E47"></rect>
    <path d="M18 25L23 20L18 15" stroke="white" stroke-width="2"></path>
  </symbol>

  <symbol xmlns="http://www.w3.org/2000/svg" viewBox="0 0 24 24" id="icon-education">
    <rect width="24" height="24" rx="12"></rect>
    <path d="M10 17L15 12L10 7" stroke="#FE7E47" stroke-width="2"></path>
  </symbol>

  <symbol xmlns="http://www.w3.org/2000/svg" viewBox="0 0 40 40" id="back-icon">
    <path d="M22 15l-5 5 5 5" stroke-width="2"></path>
    <rect x="39.5" y=".5" width="39" height="39" rx="19.5" transform="rotate(90 39.5 .5)"></rect>
  </symbol>

  <symbol xmlns="http://www.w3.org/2000/svg" viewBox="0 0 20 20" id="eye">
    <path d="M17.708 7.626C15.783 4.601 12.967 2.859 10 2.859c-1.483 0-2.925.434-4.242 1.242-1.316.817-2.5 2.008-3.466 3.525-.834 1.308-.834 3.433 0 4.742C4.217 15.4 7.033 17.134 10 17.134c1.483 0 2.925-.433 4.242-1.241 1.316-.817 2.5-2.009 3.466-3.525.834-1.3.834-3.434 0-4.742zM10 13.368A3.363 3.363 0 016.633 10c0-1.858 1.5-3.367 3.367-3.367A3.363 3.363 0 0113.367 10c0 1.858-1.5 3.367-3.367 3.367z"></path>
    <path d="M10 7.617a2.38 2.38 0 000 4.758 2.386 2.386 0 002.383-2.374A2.394 2.394 0 0010 7.617z"></path>
  </symbol>

    <symbol xmlns="http://www.w3.org/2000/svg" viewBox="0 0 20 20" id="eye-slash">
    <path d="M17.725 7.65c-.242-.383-.5-.742-.767-1.075a.834.834 0 00-1.241-.075l-2.5 2.5c.183.55.216 1.183.05 1.842a3.351 3.351 0 01-2.417 2.416 3.269 3.269 0 01-1.842-.05l-2.05 2.05c-.416.417-.283 1.15.275 1.367a7.683 7.683 0 002.767.517c1.483 0 2.925-.434 4.242-1.242 1.341-.833 2.55-2.058 3.525-3.617.791-1.258.75-3.375-.042-4.633zm-6.042.667l-3.366 3.367a2.418 2.418 0 01-.7-1.683A2.388 2.388 0 0110 7.617c.65 0 1.25.275 1.683.7z"></path>
    <path d="M15.208 4.793l-2.825 2.825A3.322 3.322 0 0010 6.634a3.363 3.363 0 00-3.367 3.367c0 .933.375 1.775.984 2.383L4.8 15.21h-.008c-.925-.75-1.775-1.708-2.5-2.841-.834-1.309-.834-3.434 0-4.742.966-1.517 2.15-2.708 3.466-3.525C7.075 3.302 8.517 2.86 10 2.86c1.858 0 3.658.684 5.208 1.934zm-2.825 5.208A2.388 2.388 0 0110 12.384c-.05 0-.092 0-.142-.016l2.509-2.509c.016.05.016.092.016.142z"></path>
    <path d="M18.142 1.86a.644.644 0 00-.909 0L1.858 17.242a.644.644 0 000 .908.632.632 0 00.9-.008L18.142 2.759a.62.62 0 000-.9z"></path>
  </symbol>
</svg>