<svg width="45" height="45" fill="none" xmlns="http://www.w3.org/2000/svg"><path d="M25 4a4 4 0 014-4h12a4 4 0 014 4v12a4 4 0 01-4 4h-9a7 7 0 01-7-7V4z" fill="#FE7E47"/><g opacity=".7" fill="#fff"><path d="M25 29a4 4 0 014-4h12a4 4 0 014 4v12a4 4 0 01-4 4H29a4 4 0 01-4-4V29zM0 4a4 4 0 014-4h12a4 4 0 014 4v12a4 4 0 01-4 4H4a4 4 0 01-4-4V4z"/><path fill-rule="evenodd" clip-rule="evenodd" d="M32 24.99c-.166.006-.332.01-.5.01C25.149 25 20 19.851 20 13.5c0-.168.004-.334.01-.5H13v7.01c.166-.006.332-.01.5-.01C19.851 20 25 25.149 25 31.5c0 .168-.004.334-.01.5H32v-7.01z"/></g></svg>